<svg width="64" height="64" viewBox="0 0 64 64" fill="none" xmlns="http://www.w3.org/2000/svg">
  <rect width="64" height="64" rx="14" fill="#111827"/>
  <circle cx="32" cy="31" r="16" fill="#F9FAFB"/>
  <path d="M24 42.5C24 42.5 24.5 40 26 39.5C21.5 38.5 19 36.5 19 31C19 29 19.7 27.3 21 26C20.8 25.5 20.1 23.3 21.2 20.5C21.2 20.5 23.1 19.9 27.5 22.8C29.3 22.3 31.2 22 33.1 22C35 22 36.9 22.3 38.7 22.8C43.1 19.9 45 20.5 45 20.5C46.1 23.3 45.4 25.5 45.2 26C46.5 27.3 47.2 29 47.2 31C47.2 36.5 44.7 38.5 40.2 39.5C42.1 40.2 43 41.6 43 44V48C43 48.8 42.4 49.5 41.6 49.5C40.8 49.5 40.2 48.8 40.2 48V44C40.2 42.6 39.3 41.5 38 41.5H35V48C35 48.8 34.4 49.5 33.6 49.5C32.8 49.5 32.2 48.8 32.2 48V41.5H29.1C27.8 41.5 27 42.6 27 44V48C27 48.8 26.3 49.5 25.5 49.5C24.8 49.5 24 48.8 24 48V42.5Z" fill="#111827"/>
</svg>
